<mxfile host="app.diagrams.net" agent="Mozilla/5.0 (Windows NT 10.0; Win64; x64) AppleWebKit/537.36 (KHTML, like Gecko) Chrome/129.0.0.0 Safari/537.36" version="24.7.16">
  <diagram name="architektura" id="5f0bae14-7c28-e335-631c-24af17079c00">
    <mxGraphModel dx="1195" dy="643" grid="1" gridSize="10" guides="1" tooltips="1" connect="1" arrows="1" fold="1" page="1" pageScale="1" pageWidth="1169" pageHeight="827" background="none" math="0" shadow="0">
      <root>
        <mxCell id="0" />
        <mxCell id="1" parent="0" />
        <mxCell id="gY4HQTh1pNE1RITPi49o-62" value="" style="rounded=1;whiteSpace=wrap;html=1;fillColor=none;fontSize=20;strokeWidth=2;arcSize=5;" parent="1" vertex="1">
          <mxGeometry x="11" y="50" width="1059" height="620" as="geometry" />
        </mxCell>
        <mxCell id="CjUv-Lag4axJxPPeYO3W-6" value="" style="rounded=1;whiteSpace=wrap;html=1;strokeColor=default;gradientColor=none;fillColor=none;fontSize=20;strokeWidth=2;" parent="1" vertex="1">
          <mxGeometry x="382" y="110" width="298" height="490" as="geometry" />
        </mxCell>
        <mxCell id="gY4HQTh1pNE1RITPi49o-69" value="" style="rounded=1;whiteSpace=wrap;html=1;dashed=1;fillColor=none;fontSize=20;strokeWidth=2;" parent="1" vertex="1">
          <mxGeometry x="41" y="460" width="280" height="140" as="geometry" />
        </mxCell>
        <mxCell id="gY4HQTh1pNE1RITPi49o-66" value="" style="rounded=1;whiteSpace=wrap;html=1;dashed=1;fillColor=none;fontSize=20;strokeWidth=2;" parent="1" vertex="1">
          <mxGeometry x="31" y="114" width="290" height="300" as="geometry" />
        </mxCell>
        <mxCell id="gY4HQTh1pNE1RITPi49o-2" value="Backend aplikacji &lt;br&gt;Harmony Home Net" style="text;strokeColor=none;fillColor=none;html=1;fontSize=20;fontStyle=1;verticalAlign=middle;align=center;fontFamily=Helvetica;strokeWidth=2;" parent="1" vertex="1">
          <mxGeometry x="354" y="127" width="350" height="30" as="geometry" />
        </mxCell>
        <mxCell id="gY4HQTh1pNE1RITPi49o-5" value="&lt;font style=&quot;font-size: 20px;&quot;&gt;Warstwa logiki biznesowej&lt;/font&gt;" style="rounded=0;whiteSpace=wrap;html=1;fillColor=none;fontSize=20;strokeWidth=2;" parent="1" vertex="1">
          <mxGeometry x="402" y="364" width="180" height="60" as="geometry" />
        </mxCell>
        <mxCell id="gY4HQTh1pNE1RITPi49o-6" value="&lt;font style=&quot;font-size: 20px;&quot;&gt;Warstwa dostępu do danych&lt;/font&gt;" style="rounded=0;whiteSpace=wrap;html=1;fontFamily=Helvetica;fillColor=none;fontSize=20;strokeWidth=2;" parent="1" vertex="1">
          <mxGeometry x="402" y="495" width="180" height="60" as="geometry" />
        </mxCell>
        <mxCell id="gY4HQTh1pNE1RITPi49o-7" value="" style="endArrow=classic;startArrow=classic;html=1;rounded=0;entryX=0.5;entryY=1;entryDx=0;entryDy=0;fontSize=20;strokeWidth=2;" parent="1" source="gY4HQTh1pNE1RITPi49o-6" target="gY4HQTh1pNE1RITPi49o-5" edge="1">
          <mxGeometry width="50" height="50" relative="1" as="geometry">
            <mxPoint x="482" y="394" as="sourcePoint" />
            <mxPoint x="482" y="354" as="targetPoint" />
          </mxGeometry>
        </mxCell>
        <mxCell id="gY4HQTh1pNE1RITPi49o-8" value="" style="endArrow=classic;startArrow=classic;html=1;rounded=0;exitX=0.5;exitY=0;exitDx=0;exitDy=0;fontSize=20;strokeWidth=2;entryX=0.5;entryY=1;entryDx=0;entryDy=0;" parent="1" source="gY4HQTh1pNE1RITPi49o-5" target="MTYXGRcquk4eYqqXAsn6-1" edge="1">
          <mxGeometry width="50" height="50" relative="1" as="geometry">
            <mxPoint x="482" y="394" as="sourcePoint" />
            <mxPoint x="492" y="300" as="targetPoint" />
          </mxGeometry>
        </mxCell>
        <mxCell id="gY4HQTh1pNE1RITPi49o-9" value="" style="rounded=1;whiteSpace=wrap;html=1;strokeColor=default;gradientColor=none;fillColor=none;fontSize=20;strokeWidth=2;" parent="1" vertex="1">
          <mxGeometry x="802" y="110" width="209" height="200" as="geometry" />
        </mxCell>
        <mxCell id="gY4HQTh1pNE1RITPi49o-10" value="Frontend aplikacji&lt;br&gt;Harmony Home Net" style="text;strokeColor=none;fillColor=none;html=1;fontSize=20;fontStyle=1;verticalAlign=middle;align=center;fontFamily=Helvetica;strokeWidth=2;" parent="1" vertex="1">
          <mxGeometry x="856.5" y="127" width="100" height="40" as="geometry" />
        </mxCell>
        <mxCell id="gY4HQTh1pNE1RITPi49o-11" value="&lt;font style=&quot;font-size: 20px;&quot;&gt;Warstwa prezentacji&lt;/font&gt;" style="rounded=0;whiteSpace=wrap;html=1;fillColor=none;fontSize=20;strokeWidth=2;" parent="1" vertex="1">
          <mxGeometry x="834" y="210" width="145" height="60" as="geometry" />
        </mxCell>
        <mxCell id="gY4HQTh1pNE1RITPi49o-12" value="" style="endArrow=classic;startArrow=classic;html=1;rounded=0;entryX=0;entryY=0.5;entryDx=0;entryDy=0;fontSize=20;strokeWidth=2;" parent="1" source="gY4HQTh1pNE1RITPi49o-60" target="gY4HQTh1pNE1RITPi49o-11" edge="1">
          <mxGeometry width="50" height="50" relative="1" as="geometry">
            <mxPoint x="801" y="250" as="sourcePoint" />
            <mxPoint x="521" y="380" as="targetPoint" />
          </mxGeometry>
        </mxCell>
        <mxCell id="gY4HQTh1pNE1RITPi49o-17" value="&lt;span style=&quot;font-weight: 700;&quot;&gt;Obraz Docker&amp;nbsp;&lt;/span&gt;&lt;div&gt;&lt;span style=&quot;font-weight: 700;&quot;&gt;Bazy Danych PostgreSQL&lt;/span&gt;&lt;/div&gt;" style="rounded=1;whiteSpace=wrap;html=1;fillColor=none;fontSize=20;strokeWidth=2;arcSize=11;verticalAlign=top;dashed=1;" parent="1" vertex="1">
          <mxGeometry x="704" y="440" width="269" height="180" as="geometry" />
        </mxCell>
        <mxCell id="gY4HQTh1pNE1RITPi49o-19" value="" style="image;aspect=fixed;html=1;points=[];align=center;fontSize=20;image=img/lib/azure2/databases/Azure_Database_PostgreSQL_Server.svg;strokeWidth=2;" parent="1" vertex="1">
          <mxGeometry x="802.84" y="502.33000000000004" width="47.49" height="63.33" as="geometry" />
        </mxCell>
        <mxCell id="gY4HQTh1pNE1RITPi49o-20" value="" style="endArrow=classic;startArrow=classic;html=1;rounded=0;exitX=1;exitY=0.5;exitDx=0;exitDy=0;fontSize=20;strokeWidth=2;entryX=0.028;entryY=0.367;entryDx=0;entryDy=0;entryPerimeter=0;" parent="1" source="gY4HQTh1pNE1RITPi49o-6" target="gY4HQTh1pNE1RITPi49o-19" edge="1">
          <mxGeometry width="50" height="50" relative="1" as="geometry">
            <mxPoint x="471" y="430" as="sourcePoint" />
            <mxPoint x="861" y="540" as="targetPoint" />
          </mxGeometry>
        </mxCell>
        <mxCell id="gY4HQTh1pNE1RITPi49o-26" value="" style="rounded=1;whiteSpace=wrap;html=1;fillColor=none;dashed=1;fontSize=20;strokeWidth=2;" parent="1" vertex="1">
          <mxGeometry x="41" y="246.5" width="210" height="90" as="geometry" />
        </mxCell>
        <mxCell id="gY4HQTh1pNE1RITPi49o-27" value="Systemy urządzeń&amp;nbsp;&lt;div style=&quot;font-size: 20px;&quot;&gt;zewnętrznych&lt;div style=&quot;font-size: 20px;&quot;&gt;np.: liczniki&lt;/div&gt;&lt;/div&gt;" style="text;strokeColor=none;fillColor=none;html=1;fontSize=20;fontStyle=1;verticalAlign=middle;align=center;strokeWidth=2;" parent="1" vertex="1">
          <mxGeometry x="96" y="270" width="100" height="40" as="geometry" />
        </mxCell>
        <mxCell id="gY4HQTh1pNE1RITPi49o-28" value="" style="rounded=1;whiteSpace=wrap;html=1;fillColor=none;dashed=1;fontSize=20;strokeWidth=2;" parent="1" vertex="1">
          <mxGeometry x="61" y="477" width="180" height="50" as="geometry" />
        </mxCell>
        <mxCell id="gY4HQTh1pNE1RITPi49o-29" value="Serwer OAuth 2&amp;nbsp;" style="text;strokeColor=none;fillColor=none;html=1;fontSize=20;fontStyle=1;verticalAlign=middle;align=center;strokeWidth=2;" parent="1" vertex="1">
          <mxGeometry x="106" y="482" width="100" height="40" as="geometry" />
        </mxCell>
        <mxCell id="gY4HQTh1pNE1RITPi49o-33" value="" style="rounded=1;whiteSpace=wrap;html=1;fillColor=none;dashed=1;fontSize=20;strokeWidth=2;" parent="1" vertex="1">
          <mxGeometry x="797.75" y="356" width="216.25" height="44" as="geometry" />
        </mxCell>
        <mxCell id="gY4HQTh1pNE1RITPi49o-34" value="Client&lt;span style=&quot;background-color: initial;&quot;&gt;&amp;nbsp;OAuth 2&amp;nbsp;&lt;/span&gt;" style="text;strokeColor=none;fillColor=none;html=1;fontSize=20;fontStyle=1;verticalAlign=middle;align=center;strokeWidth=2;" parent="1" vertex="1">
          <mxGeometry x="821.5" y="363" width="142.5" height="30" as="geometry" />
        </mxCell>
        <mxCell id="gY4HQTh1pNE1RITPi49o-35" value="" style="endArrow=classic;startArrow=classic;html=1;rounded=0;fontSize=20;strokeWidth=2;exitX=0.5;exitY=1;exitDx=0;exitDy=0;entryX=0.5;entryY=0;entryDx=0;entryDy=0;" parent="1" target="gY4HQTh1pNE1RITPi49o-33" edge="1">
          <mxGeometry width="50" height="50" relative="1" as="geometry">
            <mxPoint x="905.5000000000002" y="310" as="sourcePoint" />
            <mxPoint x="903.875" y="356" as="targetPoint" />
          </mxGeometry>
        </mxCell>
        <mxCell id="gY4HQTh1pNE1RITPi49o-37" value="" style="image;sketch=0;aspect=fixed;html=1;points=[];align=center;fontSize=20;image=img/lib/mscae/Docker.svg;strokeWidth=2;" parent="1" vertex="1">
          <mxGeometry x="821.4999999999999" y="540" width="73.17" height="60" as="geometry" />
        </mxCell>
        <mxCell id="gY4HQTh1pNE1RITPi49o-39" value="" style="outlineConnect=0;dashed=0;verticalLabelPosition=bottom;verticalAlign=top;align=center;html=1;shape=mxgraph.aws3.bank;fillColor=#5294CF;gradientColor=none;fontSize=20;strokeWidth=2;" parent="1" vertex="1">
          <mxGeometry x="211" y="122" width="70" height="70" as="geometry" />
        </mxCell>
        <mxCell id="gY4HQTh1pNE1RITPi49o-49" value="" style="shape=actor;whiteSpace=wrap;html=1;fontSize=20;strokeWidth=2;" parent="1" vertex="1">
          <mxGeometry x="1119" y="127" width="40" height="52" as="geometry" />
        </mxCell>
        <mxCell id="gY4HQTh1pNE1RITPi49o-50" value="" style="shape=actor;whiteSpace=wrap;html=1;fontSize=20;strokeWidth=2;" parent="1" vertex="1">
          <mxGeometry x="1119" y="225" width="40" height="52.5" as="geometry" />
        </mxCell>
        <mxCell id="gY4HQTh1pNE1RITPi49o-51" value="&lt;font style=&quot;font-size: 20px;&quot;&gt;Mieszkańcy&lt;/font&gt;" style="text;html=1;align=center;verticalAlign=middle;whiteSpace=wrap;rounded=0;fontSize=20;strokeWidth=2;" parent="1" vertex="1">
          <mxGeometry x="1100" y="180" width="60" height="31" as="geometry" />
        </mxCell>
        <mxCell id="gY4HQTh1pNE1RITPi49o-52" value="&lt;font style=&quot;font-size: 20px;&quot;&gt;Administracja&lt;/font&gt;" style="text;html=1;align=center;verticalAlign=middle;whiteSpace=wrap;rounded=0;fontSize=20;strokeWidth=2;" parent="1" vertex="1">
          <mxGeometry x="1109" y="286.5" width="60" height="30" as="geometry" />
        </mxCell>
        <mxCell id="gY4HQTh1pNE1RITPi49o-53" value="" style="endArrow=classic;startArrow=classic;html=1;rounded=0;entryX=0;entryY=0.667;entryDx=0;entryDy=0;entryPerimeter=0;exitX=1;exitY=0.25;exitDx=0;exitDy=0;fontSize=20;strokeWidth=2;" parent="1" source="gY4HQTh1pNE1RITPi49o-9" target="gY4HQTh1pNE1RITPi49o-49" edge="1">
          <mxGeometry width="50" height="50" relative="1" as="geometry">
            <mxPoint x="1331" y="180" as="sourcePoint" />
            <mxPoint x="1381" y="130" as="targetPoint" />
          </mxGeometry>
        </mxCell>
        <mxCell id="gY4HQTh1pNE1RITPi49o-54" value="" style="endArrow=classic;startArrow=classic;html=1;rounded=0;entryX=-0.029;entryY=0.672;entryDx=0;entryDy=0;entryPerimeter=0;exitX=1;exitY=0.75;exitDx=0;exitDy=0;fontSize=20;strokeWidth=2;" parent="1" source="gY4HQTh1pNE1RITPi49o-9" target="gY4HQTh1pNE1RITPi49o-50" edge="1">
          <mxGeometry width="50" height="50" relative="1" as="geometry">
            <mxPoint x="1321" y="330" as="sourcePoint" />
            <mxPoint x="1371" y="280" as="targetPoint" />
          </mxGeometry>
        </mxCell>
        <mxCell id="gY4HQTh1pNE1RITPi49o-57" value="" style="endArrow=classic;startArrow=classic;html=1;rounded=0;exitX=1;exitY=0.5;exitDx=0;exitDy=0;fontSize=20;strokeWidth=2;" parent="1" source="MTYXGRcquk4eYqqXAsn6-1" target="gY4HQTh1pNE1RITPi49o-43" edge="1">
          <mxGeometry width="50" height="50" relative="1" as="geometry">
            <mxPoint x="535.0423999999998" y="241.33199999999988" as="sourcePoint" />
            <mxPoint x="587" y="241.12152625259887" as="targetPoint" />
          </mxGeometry>
        </mxCell>
        <mxCell id="gY4HQTh1pNE1RITPi49o-43" value="&lt;font style=&quot;font-size: 20px;&quot;&gt;Checklist&lt;br style=&quot;font-size: 20px;&quot;&gt;security&lt;/font&gt;" style="sketch=0;outlineConnect=0;fontColor=#232F3E;gradientColor=none;strokeColor=#232F3E;fillColor=none;dashed=0;verticalLabelPosition=bottom;verticalAlign=top;align=center;html=1;fontSize=20;fontStyle=0;aspect=fixed;shape=mxgraph.aws4.resourceIcon;resIcon=mxgraph.aws4.checklist_security;strokeWidth=2;" parent="1" vertex="1">
          <mxGeometry x="601" y="210" width="60" height="60" as="geometry" />
        </mxCell>
        <mxCell id="gY4HQTh1pNE1RITPi49o-59" value="Bankowość" style="text;strokeColor=none;fillColor=none;html=1;fontSize=20;fontStyle=1;verticalAlign=middle;align=center;strokeWidth=2;" parent="1" vertex="1">
          <mxGeometry x="81" y="120" width="100" height="40" as="geometry" />
        </mxCell>
        <mxCell id="gY4HQTh1pNE1RITPi49o-61" value="" style="endArrow=classic;startArrow=classic;html=1;rounded=0;fontSize=20;strokeWidth=2;" parent="1" source="gY4HQTh1pNE1RITPi49o-43" target="gY4HQTh1pNE1RITPi49o-60" edge="1">
          <mxGeometry width="50" height="50" relative="1" as="geometry">
            <mxPoint x="642" y="214" as="sourcePoint" />
            <mxPoint x="714.9999999999995" y="239" as="targetPoint" />
          </mxGeometry>
        </mxCell>
        <mxCell id="gY4HQTh1pNE1RITPi49o-60" value="&lt;font style=&quot;font-size: 20px;&quot;&gt;Encrypted&lt;br style=&quot;font-size: 20px;&quot;&gt;data&lt;/font&gt;" style="sketch=0;outlineConnect=0;fontColor=#232F3E;gradientColor=none;strokeColor=#232F3E;fillColor=none;dashed=0;verticalLabelPosition=bottom;verticalAlign=top;align=center;html=1;fontSize=20;fontStyle=0;aspect=fixed;shape=mxgraph.aws4.resourceIcon;resIcon=mxgraph.aws4.encrypted_data;strokeWidth=2;" parent="1" vertex="1">
          <mxGeometry x="704" y="210" width="60" height="60" as="geometry" />
        </mxCell>
        <mxCell id="gY4HQTh1pNE1RITPi49o-64" value="&lt;span style=&quot;background-color: initial; font-size: 20px;&quot;&gt;Wdrożenie aplikacji&lt;/span&gt;" style="text;strokeColor=none;fillColor=none;html=1;fontSize=20;fontStyle=1;verticalAlign=middle;align=center;strokeWidth=2;" parent="1" vertex="1">
          <mxGeometry x="501" y="50" width="100" height="40" as="geometry" />
        </mxCell>
        <mxCell id="gY4HQTh1pNE1RITPi49o-67" value="" style="endArrow=classic;startArrow=classic;html=1;rounded=0;entryX=0;entryY=0.5;entryDx=0;entryDy=0;exitX=0.997;exitY=0.54;exitDx=0;exitDy=0;exitPerimeter=0;fontSize=20;strokeWidth=2;" parent="1" source="gY4HQTh1pNE1RITPi49o-66" target="gY4HQTh1pNE1RITPi49o-5" edge="1">
          <mxGeometry width="50" height="50" relative="1" as="geometry">
            <mxPoint x="131" y="442.5" as="sourcePoint" />
            <mxPoint x="181" y="392.5" as="targetPoint" />
          </mxGeometry>
        </mxCell>
        <mxCell id="gY4HQTh1pNE1RITPi49o-68" value="" style="endArrow=classic;startArrow=classic;html=1;rounded=0;entryX=0;entryY=0.5;entryDx=0;entryDy=0;exitX=1;exitY=0.25;exitDx=0;exitDy=0;fontSize=20;strokeWidth=2;" parent="1" source="gY4HQTh1pNE1RITPi49o-5" target="gY4HQTh1pNE1RITPi49o-33" edge="1">
          <mxGeometry width="50" height="50" relative="1" as="geometry">
            <mxPoint x="781" y="430" as="sourcePoint" />
            <mxPoint x="831" y="380" as="targetPoint" />
          </mxGeometry>
        </mxCell>
        <mxCell id="gY4HQTh1pNE1RITPi49o-70" value="" style="endArrow=classic;startArrow=classic;html=1;rounded=0;entryX=-0.011;entryY=0.853;entryDx=0;entryDy=0;exitX=1;exitY=0.25;exitDx=0;exitDy=0;entryPerimeter=0;fontSize=20;strokeWidth=2;" parent="1" source="gY4HQTh1pNE1RITPi49o-69" target="gY4HQTh1pNE1RITPi49o-5" edge="1">
          <mxGeometry width="50" height="50" relative="1" as="geometry">
            <mxPoint x="90" y="338" as="sourcePoint" />
            <mxPoint x="401" y="440" as="targetPoint" />
          </mxGeometry>
        </mxCell>
        <mxCell id="CjUv-Lag4axJxPPeYO3W-2" value="&lt;font style=&quot;font-size: 20px; font-weight: normal;&quot;&gt;Services&lt;/font&gt;" style="swimlane;whiteSpace=wrap;html=1;startSize=23;expand=1;collapsible=0;" parent="1" vertex="1">
          <mxGeometry x="552" y="404" width="100" height="70" as="geometry" />
        </mxCell>
        <mxCell id="CjUv-Lag4axJxPPeYO3W-1" value="" style="verticalLabelPosition=bottom;sketch=0;html=1;fillColor=#282828;strokeColor=none;verticalAlign=top;pointerEvents=1;align=center;shape=mxgraph.cisco_safe.technology_icons.icon21;rotation=90;strokeWidth=2;" parent="CjUv-Lag4axJxPPeYO3W-2" vertex="1">
          <mxGeometry x="31.5" y="21" width="43" height="50" as="geometry" />
        </mxCell>
        <mxCell id="CjUv-Lag4axJxPPeYO3W-7" value="&lt;font style=&quot;font-size: 20px; font-weight: normal;&quot;&gt;Services&lt;/font&gt;" style="swimlane;whiteSpace=wrap;html=1;startSize=23;expand=1;collapsible=0;strokeWidth=2;fillColor=#FFFFFF;" parent="1" vertex="1">
          <mxGeometry x="552" y="404" width="100" height="70" as="geometry" />
        </mxCell>
        <mxCell id="CjUv-Lag4axJxPPeYO3W-8" value="" style="verticalLabelPosition=bottom;sketch=0;html=1;fillColor=#282828;strokeColor=none;verticalAlign=top;pointerEvents=1;align=center;shape=mxgraph.cisco_safe.technology_icons.icon21;rotation=90;strokeWidth=2;" parent="CjUv-Lag4axJxPPeYO3W-7" vertex="1">
          <mxGeometry x="31.5" y="21" width="43" height="50" as="geometry" />
        </mxCell>
        <mxCell id="CjUv-Lag4axJxPPeYO3W-9" value="&lt;font style=&quot;font-size: 20px; font-weight: normal;&quot;&gt;Services&lt;/font&gt;" style="swimlane;whiteSpace=wrap;html=1;startSize=23;expand=1;collapsible=0;strokeWidth=2;" parent="1" vertex="1">
          <mxGeometry x="207" y="316.5" width="100" height="70" as="geometry" />
        </mxCell>
        <mxCell id="CjUv-Lag4axJxPPeYO3W-10" value="" style="verticalLabelPosition=bottom;sketch=0;html=1;fillColor=#282828;strokeColor=none;verticalAlign=top;pointerEvents=1;align=center;shape=mxgraph.cisco_safe.technology_icons.icon21;rotation=90;strokeWidth=2;" parent="CjUv-Lag4axJxPPeYO3W-9" vertex="1">
          <mxGeometry x="28.5" y="20" width="43" height="50" as="geometry" />
        </mxCell>
        <mxCell id="CjUv-Lag4axJxPPeYO3W-14" value="&lt;font style=&quot;font-size: 20px; font-weight: normal;&quot;&gt;Sequrity&lt;/font&gt;" style="swimlane;whiteSpace=wrap;html=1;startSize=23;expand=1;collapsible=0;strokeWidth=2;fillColor=#FFFFFF;" parent="1" vertex="1">
          <mxGeometry x="206" y="517" width="100" height="70" as="geometry" />
        </mxCell>
        <mxCell id="CjUv-Lag4axJxPPeYO3W-12" value="" style="sketch=0;pointerEvents=1;shadow=0;dashed=0;html=1;strokeColor=none;fillColor=#282828;labelPosition=center;verticalLabelPosition=bottom;verticalAlign=top;outlineConnect=0;align=center;shape=mxgraph.office.services.verification_service;strokeWidth=2;fontSize=20;" parent="CjUv-Lag4axJxPPeYO3W-14" vertex="1">
          <mxGeometry x="31" y="27" width="39" height="39.5" as="geometry" />
        </mxCell>
        <mxCell id="CjUv-Lag4axJxPPeYO3W-20" value="" style="sketch=0;pointerEvents=1;shadow=0;dashed=0;html=1;strokeColor=none;fillColor=#282828;labelPosition=center;verticalLabelPosition=bottom;verticalAlign=top;outlineConnect=0;align=center;shape=mxgraph.office.security.lock_with_key_security;strokeWidth=2;fontSize=20;" parent="1" vertex="1">
          <mxGeometry x="974" y="360" width="30" height="33.5" as="geometry" />
        </mxCell>
        <mxCell id="CjUv-Lag4axJxPPeYO3W-24" value="" style="image;sketch=0;aspect=fixed;html=1;points=[];align=center;fontSize=20;image=img/lib/mscae/Docker.svg;strokeWidth=2;" parent="1" vertex="1">
          <mxGeometry x="990" y="600.0000000000001" width="73.17" height="60" as="geometry" />
        </mxCell>
        <mxCell id="MTYXGRcquk4eYqqXAsn6-1" value="API" style="rounded=0;whiteSpace=wrap;html=1;fillColor=none;fontSize=20;strokeWidth=2;" parent="1" vertex="1">
          <mxGeometry x="425" y="211" width="134" height="60" as="geometry" />
        </mxCell>
        <mxCell id="MTYXGRcquk4eYqqXAsn6-2" value="" style="aspect=fixed;sketch=0;html=1;dashed=0;whitespace=wrap;verticalLabelPosition=bottom;verticalAlign=top;fillColor=#2875E2;strokeColor=#ffffff;points=[[0.005,0.63,0],[0.1,0.2,0],[0.9,0.2,0],[0.5,0,0],[0.995,0.63,0],[0.72,0.99,0],[0.5,1,0],[0.28,0.99,0]];shape=mxgraph.kubernetes.icon2;prIcon=api" parent="1" vertex="1">
          <mxGeometry x="532" y="247" width="50" height="48" as="geometry" />
        </mxCell>
      </root>
    </mxGraphModel>
  </diagram>
</mxfile>
